<svg width="309" height="52" viewBox="0 0 309 52" fill="none" xmlns="http://www.w3.org/2000/svg">
<path d="M68.72 40.56C68.5867 40.56 68.4667 40.4667 68.36 40.28C68.2533 40.12 68.2 39.8933 68.2 39.6C68.2533 36.4267 68.2133 33.3067 68.08 30.24C67.9733 27.1467 67.84 24.04 67.68 20.92C67.6533 20.52 67.5333 20.3467 67.32 20.4C67.1067 20.4533 66.9067 20.6933 66.72 21.12C65.6533 23.2267 64.64 25.32 63.68 27.4C62.72 29.48 61.84 31.5733 61.04 33.68C60.5867 34.8533 60.3067 35.8 60.2 36.52C60.12 37.2133 60.1867 37.7333 60.4 38.08C60.6133 38.4267 60.96 38.6667 61.44 38.8C61.7333 38.8533 61.9733 38.9333 62.16 39.04C62.3733 39.1467 62.4667 39.32 62.44 39.56C62.4133 39.72 62.2533 39.8533 61.96 39.96C61.6933 40.04 61.44 40.08 61.2 40.08C60.48 40.08 59.92 40.0667 59.52 40.04C59.12 40.0133 58.7467 40 58.4 40C58.0533 39.9733 57.5867 39.96 57 39.96C56.4667 39.96 55.9333 39.9733 55.4 40C54.8933 40.0533 54.4267 40.0933 54 40.12C53.5733 40.1467 53.2133 40.16 52.92 40.16C52.28 40.16 52 40 52.08 39.68C52.1067 39.4667 52.2533 39.32 52.52 39.24C52.76 39.1333 53.0667 39.0267 53.44 38.92C54.1333 38.7333 54.7467 38.4933 55.28 38.2C55.8133 37.9067 56.3467 37.4267 56.88 36.76C57.4133 36.0933 57.9867 35.1333 58.6 33.88L65.76 19.56C66.2133 18.6533 66.4533 17.92 66.48 17.36C66.5333 16.7733 66.2933 16.2933 65.76 15.92C65.2267 15.5467 64.36 15.2533 63.16 15.04C62.7333 14.96 62.4133 14.88 62.2 14.8C62.0133 14.6933 61.92 14.52 61.92 14.28C61.92 14.04 62.08 13.88 62.4 13.8C62.72 13.72 63.0667 13.68 63.44 13.68C63.9733 13.68 64.68 13.6933 65.56 13.72C66.4667 13.7467 67.4 13.7867 68.36 13.84C69.32 13.8667 70.1067 13.88 70.72 13.88C71.28 13.88 71.6533 14.04 71.84 14.36C72.0267 14.6533 72.12 15.0667 72.12 15.6C72.1467 16.1333 72.16 16.7333 72.16 17.4L72.64 32.04C72.6667 32.44 72.76 32.64 72.92 32.64C73.08 32.64 73.2933 32.4933 73.56 32.2C75.1067 30.6 76.6 28.92 78.04 27.16C79.48 25.4 80.8667 23.6533 82.2 21.92C83.56 20.1867 84.8267 18.56 86 17.04C86.3467 16.48 86.6267 16.0133 86.84 15.64C87.08 15.24 87.3067 14.8667 87.52 14.52C87.7333 14.1733 88.0133 14 88.36 14H90.12C90.6533 14 91.2133 13.9733 91.8 13.92C92.4133 13.8667 93 13.8133 93.56 13.76C94.12 13.7067 94.5867 13.68 94.96 13.68C95.28 13.68 95.5467 13.72 95.76 13.8C95.9733 13.88 96.08 14.0267 96.08 14.24C96.08 14.48 95.92 14.6933 95.6 14.88C95.3067 15.04 94.8133 15.1867 94.12 15.32C93.4267 15.4533 92.8533 15.6533 92.4 15.92C91.9733 16.16 91.6267 16.52 91.36 17C91.12 17.4533 90.88 18.08 90.64 18.88C89.92 21.4933 89.24 24.1733 88.6 26.92C87.9867 29.64 87.4133 32.36 86.88 35.08C86.64 36.2533 86.6933 37.12 87.04 37.68C87.3867 38.24 87.96 38.6133 88.76 38.8C89.0533 38.8533 89.2667 38.9333 89.4 39.04C89.56 39.1467 89.6267 39.32 89.6 39.56C89.5733 39.6933 89.4533 39.8133 89.24 39.92C89.0267 40.0267 88.7867 40.08 88.52 40.08C87.9067 40.08 87.2667 40.0533 86.6 40C85.9333 39.9733 85.2667 39.9333 84.6 39.88C83.96 39.8267 83.36 39.8 82.8 39.8C82.24 39.8 81.6667 39.8267 81.08 39.88C80.52 39.9333 79.9467 39.9867 79.36 40.04C78.7733 40.0933 78.16 40.12 77.52 40.12C77.2533 40.12 77.04 40.08 76.88 40C76.7467 39.8933 76.7067 39.7467 76.76 39.56C76.7867 39.3733 76.92 39.2133 77.16 39.08C77.4 38.9467 77.68 38.84 78 38.76C78.9867 38.52 79.7067 38.2133 80.16 37.84C80.64 37.4667 81.0133 36.8533 81.28 36C81.8133 34.2667 82.2933 32.6133 82.72 31.04C83.1733 29.4667 83.6 27.9067 84 26.36C84.4 24.8133 84.7867 23.2267 85.16 21.6C85.2133 21.44 85.1867 21.36 85.08 21.36C85 21.36 84.88 21.44 84.72 21.6L73.96 34.08L69.72 39.72C69.56 39.9333 69.3733 40.12 69.16 40.28C68.9733 40.4667 68.8267 40.56 68.72 40.56ZM96.7303 40.56C96.1703 40.56 95.677 40.36 95.2503 39.96C94.8236 39.5333 94.6103 39.1067 94.6103 38.68C94.6103 38.5467 94.6103 38.4267 94.6103 38.32C94.637 38.1867 94.6903 38.04 94.7703 37.88C95.6503 36.0133 96.437 34.2 97.1303 32.44C97.8236 30.68 98.477 29.04 99.0903 27.52C99.1703 27.3067 99.117 27.2 98.9303 27.2C98.7436 27.2 98.4903 27.2667 98.1703 27.4C97.8503 27.5333 97.517 27.7067 97.1703 27.92C96.8236 28.1067 96.4903 28.3067 96.1703 28.52C95.9036 28.68 95.6903 28.72 95.5303 28.64C95.397 28.5333 95.3303 28.3867 95.3303 28.2C95.3303 28.04 95.477 27.7867 95.7703 27.44C96.0903 27.0933 96.4903 26.72 96.9703 26.32C97.477 25.8933 98.037 25.4667 98.6503 25.04C99.2636 24.6133 99.877 24.2267 100.49 23.88C101.104 23.5067 101.664 23.2133 102.17 23C102.517 22.8667 102.864 22.8933 103.21 23.08C103.557 23.2667 103.837 23.52 104.05 23.84C104.264 24.1333 104.317 24.4 104.21 24.64L99.6103 35.88C99.5303 36.0133 99.477 36.16 99.4503 36.32C99.4236 36.4533 99.4103 36.5733 99.4103 36.68C99.4103 36.8133 99.4503 36.9067 99.5303 36.96C99.637 37.0133 99.7303 37.04 99.8103 37.04C100.104 37.04 100.49 36.88 100.97 36.56C101.477 36.2133 101.997 35.8133 102.53 35.36C103.09 34.9067 103.584 34.4667 104.01 34.04C104.064 33.96 104.117 33.92 104.17 33.92C104.277 33.92 104.37 33.9733 104.45 34.08C104.53 34.16 104.57 34.2533 104.57 34.36C104.57 34.84 104.29 35.4267 103.73 36.12C103.197 36.7867 102.517 37.4667 101.69 38.16C100.864 38.8267 99.997 39.4 99.0903 39.88C98.2103 40.3333 97.4236 40.56 96.7303 40.56ZM104.33 19.72C103.797 19.72 103.357 19.52 103.01 19.12C102.664 18.6933 102.49 18.2267 102.49 17.72C102.49 16.8933 102.77 16.1733 103.33 15.56C103.917 14.92 104.637 14.6 105.49 14.6C106.05 14.6 106.49 14.84 106.81 15.32C107.13 15.7733 107.29 16.2667 107.29 16.8C107.29 17.5467 106.997 18.2267 106.41 18.84C105.85 19.4267 105.157 19.72 104.33 19.72ZM108.992 40.56C108.112 40.56 107.392 40.2667 106.832 39.68C106.272 39.0667 105.992 38.2933 105.992 37.36C105.992 36.3733 106.192 35.2933 106.592 34.12C106.992 32.92 107.552 31.7067 108.272 30.48C109.019 29.2267 109.872 28.0267 110.832 26.88C111.926 25.6 113.019 24.6133 114.112 23.92C115.232 23.2 116.259 22.84 117.192 22.84C117.752 22.84 118.246 22.96 118.672 23.2C119.126 23.44 119.646 23.7467 120.232 24.12C120.552 24.3067 120.752 24.4267 120.832 24.48C120.912 24.5067 120.966 24.52 120.992 24.52C121.099 24.52 121.179 24.4133 121.232 24.2L123.392 17.2C123.552 16.72 123.659 16.3733 123.712 16.16C123.766 15.92 123.806 15.7733 123.832 15.72C123.859 15.6667 123.859 15.6267 123.832 15.6C123.832 15.5733 123.832 15.5333 123.832 15.48C123.832 15.1867 123.712 14.9333 123.472 14.72C123.259 14.5067 122.886 14.3067 122.352 14.12C121.926 13.96 121.659 13.8533 121.552 13.8C121.446 13.72 121.392 13.6267 121.392 13.52C121.392 13.3333 121.486 13.1867 121.672 13.08C121.859 12.9733 122.179 12.8533 122.632 12.72C122.979 12.64 123.432 12.5467 123.992 12.44C124.552 12.3067 125.126 12.2 125.712 12.12C126.326 12.0133 126.859 11.9333 127.312 11.88C127.766 11.8 128.072 11.76 128.232 11.76C128.792 11.76 129.072 11.9467 129.072 12.32C129.072 12.5067 129.046 12.6933 128.992 12.88C128.966 13.0667 128.899 13.3333 128.792 13.68L121.792 35.48C121.739 35.64 121.699 35.7867 121.672 35.92C121.646 36.0533 121.632 36.1867 121.632 36.32C121.632 36.6667 121.752 36.84 121.992 36.84C122.259 36.84 122.606 36.72 123.032 36.48C123.459 36.24 123.912 35.92 124.392 35.52C124.872 35.0933 125.299 34.6667 125.672 34.24C125.726 34.16 125.766 34.12 125.792 34.12C125.819 34.0933 125.859 34.08 125.912 34.08C126.206 34.08 126.339 34.2533 126.312 34.6C126.312 34.9467 126.139 35.3867 125.792 35.92C125.446 36.4267 124.992 36.9467 124.432 37.48C123.872 38.0133 123.259 38.52 122.592 39C121.926 39.4533 121.286 39.8267 120.672 40.12C120.059 40.4133 119.526 40.56 119.072 40.56C118.699 40.56 118.326 40.4533 117.952 40.24C117.606 40.0267 117.312 39.76 117.072 39.44C116.832 39.12 116.712 38.8 116.712 38.48C116.712 38.32 116.766 38 116.872 37.52C116.979 37.2267 117.112 36.8667 117.272 36.44C117.432 36.0133 117.579 35.6 117.712 35.2C117.872 34.8 117.992 34.5067 118.072 34.32C118.179 34.1333 118.192 34.16 118.112 34.4C118.192 34.1867 118.179 34.0533 118.072 34C117.992 33.92 117.899 33.9733 117.792 34.16C115.952 36.4 114.339 38.0267 112.952 39.04C111.566 40.0533 110.246 40.56 108.992 40.56ZM111.752 37.32C112.366 37.32 113.032 37.0933 113.752 36.64C114.499 36.16 115.232 35.5333 115.952 34.76C116.672 33.96 117.339 33.1067 117.952 32.2C118.592 31.2667 119.086 30.3333 119.432 29.4C119.806 28.4667 119.992 27.6267 119.992 26.88C119.992 26.1333 119.832 25.5733 119.512 25.2C119.219 24.8 118.779 24.6 118.192 24.6C117.686 24.6 117.086 24.8667 116.392 25.4C115.726 25.9067 115.046 26.6 114.352 27.48C113.659 28.3333 113.019 29.2667 112.432 30.28C111.846 31.2667 111.379 32.2667 111.032 33.28C110.686 34.2933 110.512 35.1733 110.512 35.92C110.512 36.4 110.606 36.76 110.792 37C111.006 37.2133 111.326 37.32 111.752 37.32ZM131.593 40.6C131.379 40.6 131.139 40.52 130.873 40.36C130.606 40.2 130.353 40 130.113 39.76C129.873 39.4933 129.699 39.1867 129.593 38.84C129.486 38.4933 129.513 38.1467 129.673 37.8L133.913 27.32C134.233 26.4667 134.153 26.04 133.673 26.04C133.459 26.04 133.179 26.0667 132.833 26.12C132.513 26.1467 132.153 26.28 131.753 26.52C131.353 26.7333 130.953 27.0933 130.553 27.6C130.446 27.7333 130.299 27.8 130.113 27.8C129.926 27.7733 129.819 27.64 129.793 27.4C129.793 27.2133 129.859 26.9733 129.993 26.68C130.153 26.3867 130.339 26.0933 130.553 25.8C130.766 25.48 130.939 25.24 131.073 25.08C131.633 24.4667 132.326 23.96 133.153 23.56C134.006 23.16 135.006 22.9467 136.153 22.92C136.686 22.92 137.113 23.0667 137.433 23.36C137.753 23.6267 137.953 23.9867 138.033 24.44C138.139 24.8667 138.099 25.32 137.913 25.8L135.633 31.56C135.553 31.7467 135.606 31.8533 135.793 31.88C136.006 31.9067 136.153 31.84 136.233 31.68C137.219 29.9467 138.206 28.4267 139.193 27.12C140.206 25.8133 141.219 24.7867 142.233 24.04C143.273 23.2933 144.286 22.92 145.273 22.92C146.179 22.92 146.846 23.1867 147.273 23.72C147.726 24.2267 147.979 24.88 148.033 25.68C148.113 26.4533 147.966 27.24 147.593 28.04L144.353 35.64C144.006 36.52 144.073 36.96 144.553 36.96C144.766 36.96 145.046 36.8667 145.393 36.68C145.739 36.4933 146.099 36.2667 146.473 36C146.873 35.7333 147.219 35.48 147.513 35.24C147.806 35 148.019 34.8133 148.153 34.68C148.233 34.5733 148.326 34.48 148.433 34.4C148.539 34.32 148.633 34.28 148.713 34.28C148.793 34.28 148.873 34.32 148.953 34.4C149.033 34.48 149.073 34.5867 149.073 34.72C149.073 35.1467 148.939 35.52 148.673 35.84C147.926 36.7467 147.086 37.56 146.153 38.28C145.246 38.9733 144.299 39.5333 143.313 39.96C142.353 40.36 141.419 40.56 140.513 40.56C140.193 40.56 139.873 40.4533 139.553 40.24C139.233 40.0267 138.993 39.7733 138.833 39.48C138.699 39.1867 138.699 38.8667 138.833 38.52C139.659 36.6267 140.513 34.7467 141.393 32.88C142.273 31.0133 143.086 29.12 143.833 27.2C144.073 26.5067 144.153 26.0133 144.073 25.72C144.019 25.4 143.833 25.24 143.513 25.24C143.166 25.2133 142.793 25.3867 142.393 25.76C141.993 26.1067 141.553 26.5733 141.073 27.16C140.619 27.7467 140.126 28.3867 139.593 29.08C139.326 29.4267 138.966 29.96 138.513 30.68C138.059 31.4 137.539 32.2133 136.953 33.12C136.393 34 135.833 34.9067 135.273 35.84C134.713 36.7733 134.206 37.64 133.753 38.44C133.379 39.08 133.019 39.6 132.673 40C132.326 40.4 131.966 40.6 131.593 40.6ZM153.801 40.56C153.241 40.56 152.747 40.36 152.321 39.96C151.894 39.5333 151.681 39.1067 151.681 38.68C151.681 38.5467 151.681 38.4267 151.681 38.32C151.707 38.1867 151.761 38.04 151.841 37.88C152.721 36.0133 153.507 34.2 154.201 32.44C154.894 30.68 155.547 29.04 156.161 27.52C156.241 27.3067 156.187 27.2 156.001 27.2C155.814 27.2 155.561 27.2667 155.241 27.4C154.921 27.5333 154.587 27.7067 154.241 27.92C153.894 28.1067 153.561 28.3067 153.241 28.52C152.974 28.68 152.761 28.72 152.601 28.64C152.467 28.5333 152.401 28.3867 152.401 28.2C152.401 28.04 152.547 27.7867 152.841 27.44C153.161 27.0933 153.561 26.72 154.041 26.32C154.547 25.8933 155.107 25.4667 155.721 25.04C156.334 24.6133 156.947 24.2267 157.561 23.88C158.174 23.5067 158.734 23.2133 159.241 23C159.587 22.8667 159.934 22.8933 160.281 23.08C160.627 23.2667 160.907 23.52 161.121 23.84C161.334 24.1333 161.387 24.4 161.281 24.64L156.681 35.88C156.601 36.0133 156.547 36.16 156.521 36.32C156.494 36.4533 156.481 36.5733 156.481 36.68C156.481 36.8133 156.521 36.9067 156.601 36.96C156.707 37.0133 156.801 37.04 156.881 37.04C157.174 37.04 157.561 36.88 158.041 36.56C158.547 36.2133 159.067 35.8133 159.601 35.36C160.161 34.9067 160.654 34.4667 161.081 34.04C161.134 33.96 161.187 33.92 161.241 33.92C161.347 33.92 161.441 33.9733 161.521 34.08C161.601 34.16 161.641 34.2533 161.641 34.36C161.641 34.84 161.361 35.4267 160.801 36.12C160.267 36.7867 159.587 37.4667 158.761 38.16C157.934 38.8267 157.067 39.4 156.161 39.88C155.281 40.3333 154.494 40.56 153.801 40.56ZM161.401 19.72C160.867 19.72 160.427 19.52 160.081 19.12C159.734 18.6933 159.561 18.2267 159.561 17.72C159.561 16.8933 159.841 16.1733 160.401 15.56C160.987 14.92 161.707 14.6 162.561 14.6C163.121 14.6 163.561 14.84 163.881 15.32C164.201 15.7733 164.361 16.2667 164.361 16.8C164.361 17.5467 164.067 18.2267 163.481 18.84C162.921 19.4267 162.227 19.72 161.401 19.72ZM168.134 51.6C166.534 51.6 165.067 51.4133 163.734 51.04C162.427 50.6933 161.387 50.2 160.614 49.56C159.814 48.92 159.414 48.1867 159.414 47.36C159.414 46.6667 159.787 46.0267 160.534 45.44C161.281 44.8533 162.241 44.32 163.414 43.84C164.587 43.36 165.841 42.92 167.174 42.52C167.441 42.44 167.467 42.32 167.254 42.16C166.694 41.7867 166.201 41.3733 165.774 40.92C165.374 40.4933 165.174 40.0267 165.174 39.52C165.174 38.9867 165.441 38.5067 165.974 38.08C166.534 37.6267 167.201 37.1733 167.974 36.72C168.134 36.5867 168.241 36.48 168.294 36.4C168.374 36.32 168.414 36.2533 168.414 36.2C168.414 36.12 168.294 36.0133 168.054 35.88C167.574 35.6667 167.121 35.3733 166.694 35C166.267 34.6 165.934 34.1333 165.694 33.6C165.454 33.04 165.334 32.44 165.334 31.8C165.334 30.92 165.521 29.9733 165.894 28.96C166.294 27.9467 166.854 26.9867 167.574 26.08C168.321 25.1467 169.227 24.3867 170.294 23.8C171.361 23.2133 172.561 22.92 173.894 22.92C174.401 22.92 174.854 22.9867 175.254 23.12C175.654 23.2533 176.001 23.4 176.294 23.56C176.641 23.6933 176.961 23.8267 177.254 23.96C177.547 24.0933 177.787 24.16 177.974 24.16C178.401 24.16 178.841 24.12 179.294 24.04C179.747 23.9333 180.187 23.8267 180.614 23.72C181.067 23.6133 181.467 23.56 181.814 23.56C181.974 23.56 182.174 23.64 182.414 23.8C182.654 23.9333 182.774 24.2 182.774 24.6C182.774 25.08 182.681 25.4667 182.494 25.76C182.307 26.0533 182.081 26.2 181.814 26.2C181.574 26.2 181.281 26.1733 180.934 26.12C180.587 26.04 180.241 25.9733 179.894 25.92C179.547 25.8667 179.241 25.84 178.974 25.84C178.867 25.84 178.747 25.8667 178.614 25.92C178.507 25.9733 178.481 26.1067 178.534 26.32C178.587 26.5067 178.614 26.7067 178.614 26.92C178.641 27.1067 178.654 27.3067 178.654 27.52C178.654 28.5867 178.441 29.6533 178.014 30.72C177.587 31.76 177.001 32.72 176.254 33.6C175.534 34.4533 174.681 35.1467 173.694 35.68C172.734 36.1867 171.707 36.44 170.614 36.44C170.374 36.44 170.134 36.4533 169.894 36.48C169.681 36.5067 169.521 36.56 169.414 36.64C169.121 36.88 168.974 37.16 168.974 37.48C168.974 37.8533 169.107 38.2 169.374 38.52C169.667 38.8133 170.081 39.1467 170.614 39.52C171.121 39.84 171.694 40.2 172.334 40.6C172.974 41.0267 173.627 41.44 174.294 41.84C174.961 42.2667 175.561 42.6533 176.094 43C176.707 43.4267 177.174 43.8667 177.494 44.32C177.814 44.7733 177.974 45.2533 177.974 45.76C177.974 46.5067 177.681 47.2267 177.094 47.92C176.507 48.64 175.734 49.2667 174.774 49.8C173.814 50.36 172.761 50.8 171.614 51.12C170.467 51.44 169.307 51.6 168.134 51.6ZM169.694 50.24C170.521 50.24 171.254 50.12 171.894 49.88C172.534 49.64 173.041 49.32 173.414 48.92C173.814 48.52 174.014 48.0667 174.014 47.56C174.014 47.24 173.894 46.8933 173.654 46.52C173.441 46.1733 173.121 45.8667 172.694 45.6C172.267 45.28 171.707 44.9067 171.014 44.48C170.321 44.0533 169.761 43.7467 169.334 43.56C169.041 43.4 168.774 43.32 168.534 43.32C168.401 43.32 168.267 43.3333 168.134 43.36C168.001 43.3867 167.854 43.4267 167.694 43.48C166.307 43.9067 165.227 44.3867 164.454 44.92C163.707 45.4533 163.334 46.1733 163.334 47.08C163.334 47.64 163.587 48.16 164.094 48.64C164.627 49.12 165.374 49.5067 166.334 49.8C167.294 50.0933 168.414 50.24 169.694 50.24ZM170.094 35.08C170.547 35.1067 171.027 34.9067 171.534 34.48C172.041 34.0267 172.521 33.44 172.974 32.72C173.427 31.9733 173.841 31.1733 174.214 30.32C174.587 29.4667 174.881 28.6533 175.094 27.88C175.307 27.08 175.414 26.4133 175.414 25.88C175.414 25.4267 175.307 25.0267 175.094 24.68C174.881 24.3333 174.601 24.16 174.254 24.16C173.801 24.16 173.334 24.3867 172.854 24.84C172.374 25.2667 171.894 25.84 171.414 26.56C170.961 27.2533 170.547 28.0133 170.174 28.84C169.801 29.6667 169.494 30.4667 169.254 31.24C169.041 32.0133 168.934 32.6933 168.934 33.28C168.934 33.84 169.041 34.28 169.254 34.6C169.494 34.8933 169.774 35.0533 170.094 35.08ZM184.08 40.64C183.866 40.64 183.626 40.56 183.36 40.4C183.12 40.2667 182.893 40.08 182.68 39.84C182.493 39.5733 182.4 39.2933 182.4 39C182.4 38.5733 182.44 38.1467 182.52 37.72C182.626 37.2933 182.76 36.7867 182.92 36.2L188.4 18.2C188.533 17.7733 188.64 17.3333 188.72 16.88C188.826 16.4267 188.88 16.0533 188.88 15.76C188.88 15.44 188.706 15.2 188.36 15.04C188.04 14.8533 187.706 14.6933 187.36 14.56C187.173 14.5067 187 14.44 186.84 14.36C186.68 14.28 186.6 14.1733 186.6 14.04C186.6 13.88 186.653 13.7467 186.76 13.64C186.866 13.5333 187.133 13.4133 187.56 13.28C187.826 13.1733 188.226 13.04 188.76 12.88C189.32 12.6933 189.906 12.52 190.52 12.36C191.133 12.1733 191.693 12.0267 192.2 11.92C192.706 11.7867 193.053 11.72 193.24 11.72C193.4 11.72 193.586 11.7467 193.8 11.8C194.04 11.8267 194.16 11.96 194.16 12.2C194.16 12.4933 194.12 12.7467 194.04 12.96C193.986 13.1733 193.92 13.4 193.84 13.64L188.32 31.24C188.266 31.4267 188.28 31.52 188.36 31.52C188.466 31.52 188.573 31.4533 188.68 31.32C189.72 29.72 190.813 28.28 191.96 27C193.133 25.72 194.28 24.7067 195.4 23.96C196.546 23.1867 197.6 22.8 198.56 22.8C199.6 22.8 200.373 23.1333 200.88 23.8C201.413 24.44 201.68 25.2133 201.68 26.12C201.68 27.5067 201.48 28.8933 201.08 30.28C200.68 31.64 200.133 32.9333 199.44 34.16C198.773 35.3867 198.026 36.4667 197.2 37.4C197.04 37.6133 196.733 37.8933 196.28 38.24C195.826 38.5867 195.306 38.9467 194.72 39.32C194.133 39.6667 193.573 39.96 193.04 40.2C192.506 40.44 192.066 40.56 191.72 40.56C191.453 40.56 191.146 40.4533 190.8 40.24C190.48 40.0533 190.2 39.8267 189.96 39.56C189.72 39.2933 189.6 39.0533 189.6 38.84C189.6 38.7067 189.666 38.5067 189.8 38.24C189.933 37.9733 190.093 37.7333 190.28 37.52C190.493 37.28 190.693 37.16 190.88 37.16C191.146 37.16 191.36 37.2267 191.52 37.36C191.68 37.4933 191.853 37.64 192.04 37.8C192.226 37.96 192.413 38.12 192.6 38.28C192.786 38.4133 193 38.48 193.24 38.48C193.586 38.48 193.946 38.2133 194.32 37.68C194.693 37.12 195.053 36.4133 195.4 35.56C195.746 34.68 196.053 33.7333 196.32 32.72C196.586 31.68 196.8 30.6667 196.96 29.68C197.146 28.6667 197.24 27.7733 197.24 27C197.24 26.4933 197.133 26.1067 196.92 25.84C196.733 25.5467 196.44 25.4 196.04 25.4C195.613 25.4 195.093 25.68 194.48 26.24C193.893 26.8 193.253 27.5467 192.56 28.48C191.893 29.4133 191.2 30.4267 190.48 31.52C189.786 32.6133 189.106 33.72 188.44 34.84C187.773 35.9333 187.16 36.9333 186.6 37.84C186.066 38.8 185.6 39.5067 185.2 39.96C184.8 40.4133 184.426 40.64 184.08 40.64ZM205.563 40.56C205.216 40.56 204.87 40.44 204.523 40.2C204.176 39.96 203.896 39.68 203.683 39.36C203.47 39.0133 203.363 38.72 203.363 38.48C203.363 38.1867 203.403 37.92 203.483 37.68C203.563 37.4133 203.683 37.0667 203.843 36.64L207.603 26.32C207.736 25.9733 207.736 25.7467 207.603 25.64C207.496 25.5067 207.363 25.44 207.203 25.44L205.363 25.36C204.963 25.3333 204.71 25.24 204.603 25.08C204.523 24.92 204.483 24.7733 204.483 24.64C204.483 24.5867 204.563 24.4667 204.723 24.28C204.883 24.0667 205.096 23.88 205.363 23.72C205.63 23.5333 205.91 23.44 206.203 23.44H207.963C208.336 23.44 208.576 23.3867 208.683 23.28C208.816 23.1467 208.976 22.8933 209.163 22.52L210.243 20.36C210.43 20.0133 210.683 19.6667 211.003 19.32C211.35 18.9733 211.71 18.68 212.083 18.44C212.456 18.2 212.776 18.08 213.043 18.08C213.39 18.08 213.616 18.2667 213.723 18.64C213.83 19.0133 213.816 19.3733 213.683 19.72L212.723 22.68C212.643 23 212.656 23.2133 212.763 23.32C212.87 23.4 213.043 23.44 213.283 23.44C213.71 23.44 214.15 23.4667 214.603 23.52C215.083 23.5733 215.536 23.6267 215.963 23.68C216.496 23.76 216.816 23.8667 216.923 24C217.03 24.1067 217.083 24.2533 217.083 24.44C217.083 24.4933 217.016 24.6133 216.883 24.8C216.75 24.96 216.496 25.0533 216.123 25.08C215.696 25.1067 215.27 25.1467 214.843 25.2C214.416 25.2267 213.936 25.2533 213.403 25.28C212.95 25.3067 212.603 25.3733 212.363 25.48C212.15 25.5867 211.99 25.7733 211.883 26.04L208.723 34.8C208.563 35.28 208.483 35.6533 208.483 35.92C208.483 36.1867 208.55 36.3733 208.683 36.48C208.816 36.56 208.976 36.6 209.163 36.6C209.51 36.6 209.923 36.44 210.403 36.12C210.883 35.7733 211.363 35.4 211.843 35C212.323 34.5733 212.71 34.2 213.003 33.88C213.163 33.7467 213.296 33.68 213.403 33.68C213.51 33.6533 213.576 33.68 213.603 33.76C213.683 33.84 213.723 33.9733 213.723 34.16C213.723 34.32 213.67 34.5067 213.563 34.72C213.376 35.1467 213.056 35.6133 212.603 36.12C212.176 36.6267 211.656 37.1467 211.043 37.68C210.456 38.2133 209.83 38.6933 209.163 39.12C208.523 39.5467 207.883 39.8933 207.243 40.16C206.63 40.4267 206.07 40.56 205.563 40.56ZM233.773 40L225.562 10.9091H231.23L236.472 32.2869H236.741L242.338 10.9091H247.494L253.105 32.3011H253.361L258.602 10.9091H264.27L256.06 40H250.861L245.037 19.5881H244.81L238.972 40H233.773ZM271.749 40.4403C270.366 40.4403 269.121 40.1941 268.013 39.7017C266.914 39.1998 266.043 38.4612 265.399 37.4858C264.765 36.5104 264.447 35.3078 264.447 33.8778C264.447 32.6468 264.675 31.6288 265.129 30.8239C265.584 30.0189 266.204 29.375 266.99 28.892C267.776 28.4091 268.661 28.0445 269.646 27.7983C270.641 27.5426 271.668 27.358 272.729 27.2443C274.007 27.1117 275.044 26.9934 275.839 26.8892C276.635 26.7756 277.213 26.6051 277.572 26.3778C277.942 26.1411 278.126 25.7765 278.126 25.2841V25.1989C278.126 24.1288 277.809 23.3002 277.175 22.7131C276.54 22.1259 275.626 21.8324 274.433 21.8324C273.174 21.8324 272.175 22.107 271.436 22.6562C270.707 23.2055 270.214 23.8542 269.959 24.6023L265.158 23.9205C265.536 22.5947 266.161 21.4867 267.033 20.5966C267.904 19.697 268.969 19.0246 270.229 18.5795C271.488 18.125 272.88 17.8977 274.405 17.8977C275.456 17.8977 276.502 18.0208 277.544 18.267C278.586 18.5133 279.537 18.9205 280.399 19.4886C281.261 20.0473 281.952 20.8097 282.473 21.7756C283.003 22.7415 283.268 23.9489 283.268 25.3977V40H278.325V37.0028H278.155C277.842 37.6089 277.402 38.1771 276.834 38.7074C276.275 39.2282 275.57 39.6496 274.717 39.9716C273.875 40.2841 272.885 40.4403 271.749 40.4403ZM273.084 36.6619C274.116 36.6619 275.011 36.4583 275.768 36.0511C276.526 35.6345 277.108 35.0852 277.516 34.4034C277.932 33.7216 278.141 32.9782 278.141 32.1733V29.6023C277.98 29.7348 277.705 29.858 277.317 29.9716C276.938 30.0852 276.512 30.1847 276.038 30.2699C275.565 30.3551 275.096 30.4309 274.632 30.4972C274.168 30.5634 273.766 30.6203 273.425 30.6676C272.658 30.7718 271.971 30.9422 271.365 31.179C270.759 31.4157 270.281 31.7472 269.93 32.1733C269.58 32.59 269.405 33.1297 269.405 33.7926C269.405 34.7396 269.75 35.4545 270.442 35.9375C271.133 36.4205 272.014 36.6619 273.084 36.6619ZM292.643 18.1818L297.047 26.2358L301.521 18.1818H306.962L300.385 29.0909L307.075 40H301.663L297.047 32.1449L292.473 40H287.018L293.666 29.0909L287.189 18.1818H292.643Z" fill="white"/>
<circle cx="21" cy="26" r="21" fill="#37374A"/>
<path d="M17.771 37.462C17.683 37.462 17.606 37.385 17.54 37.231C17.496 37.077 17.474 36.879 17.474 36.637C17.562 33.887 17.584 31.137 17.54 28.387C17.518 25.615 17.452 22.854 17.342 20.104C17.32 19.62 17.21 19.389 17.012 19.411C16.836 19.433 16.627 19.697 16.385 20.203C15.373 22.205 14.394 24.207 13.448 26.209C12.524 28.189 11.633 30.18 10.775 32.182C10.335 33.216 10.06 34.008 9.95 34.558C9.84 35.108 9.851 35.493 9.983 35.713C10.137 35.933 10.368 36.076 10.676 36.142C11.006 36.186 11.248 36.252 11.402 36.34C11.578 36.428 11.666 36.549 11.666 36.703C11.666 36.835 11.545 36.934 11.303 37C11.061 37.066 10.808 37.099 10.544 37.099C9.994 37.099 9.543 37.088 9.191 37.066C8.861 37.044 8.531 37.022 8.201 37C7.893 37 7.486 37 6.98 37C6.606 37 6.309 37.011 6.089 37.033C5.891 37.077 5.649 37.11 5.363 37.132C5.099 37.176 4.692 37.198 4.142 37.198C3.614 37.198 3.35 37.088 3.35 36.868C3.35 36.714 3.449 36.593 3.647 36.505C3.845 36.395 4.131 36.307 4.505 36.241C5.143 36.131 5.693 35.955 6.155 35.713C6.617 35.449 7.057 35.053 7.475 34.525C7.915 33.975 8.388 33.216 8.894 32.248L15.461 19.444C15.747 18.894 15.89 18.41 15.89 17.992C15.89 17.574 15.681 17.233 15.263 16.969C14.867 16.683 14.218 16.485 13.316 16.375C12.832 16.309 12.491 16.243 12.293 16.177C12.117 16.089 12.029 15.968 12.029 15.814C12.029 15.638 12.15 15.506 12.392 15.418C12.656 15.33 12.997 15.286 13.415 15.286C13.789 15.286 14.306 15.297 14.966 15.319C15.626 15.341 16.308 15.374 17.012 15.418C17.716 15.44 18.299 15.451 18.761 15.451C19.047 15.451 19.256 15.528 19.388 15.682C19.542 15.814 19.641 16.045 19.685 16.375C19.729 16.683 19.74 17.123 19.718 17.695L19.982 31.621C20.004 32.105 20.103 32.314 20.279 32.248C20.477 32.182 20.708 32.006 20.972 31.72C22.336 30.18 23.656 28.662 24.932 27.166C26.23 25.648 27.517 24.13 28.793 22.612C30.091 21.094 31.389 19.565 32.687 18.025C32.929 17.563 33.116 17.189 33.248 16.903C33.38 16.595 33.534 16.298 33.71 16.012C33.886 15.704 34.117 15.55 34.403 15.55H35.657C35.833 15.55 36.108 15.528 36.482 15.484C36.856 15.44 37.241 15.396 37.637 15.352C38.033 15.308 38.33 15.286 38.528 15.286C38.792 15.286 39.034 15.33 39.254 15.418C39.496 15.506 39.617 15.627 39.617 15.781C39.617 15.957 39.518 16.111 39.32 16.243C39.144 16.353 38.792 16.441 38.264 16.507C37.604 16.595 37.087 16.705 36.713 16.837C36.361 16.969 36.086 17.222 35.888 17.596C35.69 17.948 35.47 18.52 35.228 19.312C34.634 21.336 34.095 23.426 33.611 25.582C33.127 27.716 32.687 29.828 32.291 31.918C32.005 33.392 31.972 34.437 32.192 35.053C32.434 35.669 32.918 36.032 33.644 36.142C33.974 36.186 34.194 36.252 34.304 36.34C34.436 36.428 34.502 36.549 34.502 36.703C34.502 36.791 34.403 36.879 34.205 36.967C34.007 37.055 33.776 37.099 33.512 37.099C32.962 37.099 32.478 37.066 32.06 37C31.664 36.956 31.268 36.901 30.872 36.835C30.476 36.769 30.025 36.736 29.519 36.736C29.013 36.736 28.595 36.769 28.265 36.835C27.957 36.901 27.627 36.956 27.275 37C26.945 37.066 26.505 37.099 25.955 37.099C25.691 37.099 25.493 37.066 25.361 37C25.251 36.934 25.196 36.835 25.196 36.703C25.196 36.571 25.295 36.461 25.493 36.373C25.713 36.263 25.999 36.164 26.351 36.076C27.055 35.9 27.583 35.625 27.935 35.251C28.309 34.877 28.617 34.316 28.859 33.568C29.409 31.896 29.893 30.356 30.311 28.948C30.729 27.518 31.114 26.121 31.466 24.757C31.84 23.371 32.214 21.93 32.588 20.434C32.632 20.324 32.599 20.258 32.489 20.236C32.401 20.214 32.302 20.258 32.192 20.368L22.457 31.654L18.596 36.67C18.376 36.934 18.2 37.132 18.068 37.264C17.936 37.396 17.837 37.462 17.771 37.462Z" fill="#656574"/>
<circle cx="20.5882" cy="25.5882" r="6.58824" fill="#000017"/>
</svg>
